<?xml version="1.0" encoding="UTF-8" standalone="no"?>
<!DOCTYPE svg PUBLIC "-//W3C//DTD SVG 1.1//EN" "http://www.w3.org/Graphics/SVG/1.1/DTD/svg11.dtd">
<svg width="100%" height="100%" viewBox="0 0 24 24" version="1.1" xmlns="http://www.w3.org/2000/svg" xmlns:xlink="http://www.w3.org/1999/xlink" xml:space="preserve" xmlns:serif="http://www.serif.com/" style="fill-rule:evenodd;clip-rule:evenodd;stroke-linejoin:round;stroke-miterlimit:2;">
    <g transform="matrix(6.12323e-17,1,-1,6.12323e-17,24,0)">
        <g transform="matrix(-1,-1.22465e-16,-1.22465e-16,1,18.5215,0)">
            <path d="M11.28,9.53L8.81,12L11.28,14.47C11.433,14.612 11.519,14.811 11.519,15.019C11.519,15.361 11.285,15.661 10.954,15.745C10.689,15.813 10.407,15.73 10.22,15.53L7.22,12.53C6.929,12.239 6.929,11.761 7.22,11.47L10.22,8.47C10.362,8.317 10.561,8.231 10.769,8.231C11.111,8.231 11.411,8.465 11.495,8.796C11.563,9.061 11.48,9.343 11.28,9.53Z" style="fill-rule:nonzero;"/>
        </g>
        <path d="M3.75,2L20.25,2C21.216,2 22,2.784 22,3.75L22,20.25C22,21.21 21.21,22 20.25,22L3.75,22C2.79,22 2,21.21 2,20.25L2,3.75C2,2.784 2.784,2 3.75,2ZM3.5,3.75L3.5,20.25C3.5,20.388 3.612,20.5 3.75,20.5L15,20.5L15,3.5L3.75,3.5C3.613,3.5 3.5,3.613 3.5,3.75ZM16.5,20.5L20.25,20.5C20.387,20.5 20.5,20.387 20.5,20.25L20.5,3.75C20.5,3.613 20.387,3.5 20.25,3.5L16.5,3.5L16.5,20.5Z" style="fill-rule:nonzero;"/>
    </g>
</svg>
