<?xml version="1.0" encoding="UTF-8" standalone="no"?>
<!DOCTYPE svg PUBLIC "-//W3C//DTD SVG 1.1//EN" "http://www.w3.org/Graphics/SVG/1.1/DTD/svg11.dtd">
<svg width="100%" height="100%" viewBox="0 0 24 24" version="1.1" xmlns="http://www.w3.org/2000/svg" xmlns:xlink="http://www.w3.org/1999/xlink" xml:space="preserve" xmlns:serif="http://www.serif.com/" style="fill-rule:evenodd;clip-rule:evenodd;stroke-linejoin:round;stroke-miterlimit:2;">
    <rect id="Artboard1" x="0" y="0" width="24" height="24" style="fill:none;"/>
    <g id="Artboard11" serif:id="Artboard1">
        <g transform="matrix(6.12323e-17,-1,1,6.12323e-17,-1.76484e-07,24)">
            <path d="M3.75,2L20.25,2C21.216,2 22,2.784 22,3.75L22,20.25C22,20.714 21.816,21.159 21.487,21.487C21.159,21.815 20.714,22 20.25,22L3.75,22C3.286,22 2.841,21.816 2.513,21.487C2.185,21.159 2,20.714 2,20.25L2,3.75C2,2.784 2.784,2 3.75,2ZM3.5,3.75L3.5,20.25C3.5,20.388 3.612,20.5 3.75,20.5L11,20.5L11,3.5L3.75,3.5C3.613,3.5 3.5,3.613 3.5,3.75ZM12.5,20.5L20.25,20.5C20.387,20.5 20.5,20.387 20.5,20.25L20.5,3.75C20.5,3.613 20.387,3.5 20.25,3.5L12.5,3.5L12.5,20.5Z" style="fill-rule:nonzero;"/>
        </g>
    </g>
</svg>
