<svg version="1.1" xmlns="http://www.w3.org/2000/svg" xmlns:xlink="http://www.w3.org/1999/xlink">
    <symbol id="clipboard_copy" viewBox="0 0 32 36">
        <path fill="currentColor" d="M27.5,33 L2.5,33 L2.5,12.5 L27.5,12.5 L27.5,20 L30,20 L30,7.5 C30,6.1 28.9,5 27.5,5 L20,5 C20,2.2 17.8,0 15,0 C12.2,0 10,2.2 10,5 L2.5,5 C1.1,5 0,6.1 0,7.5 L0,33 C0,34.4 1.1,36 2.5,36 L27.5,36 C28.9,36 30,34.4 30,33 L30,29 L27.5,29 L27.5,33 Z M7.5,7.5 L10,7.5 C10,7.5 12.5,6.4 12.5,5 C12.5,3.6 13.6,2.5 15,2.5 C16.4,2.5 17.5,3.6 17.5,5 C17.5,6.4 18.8,7.5 20,7.5 L22.5,7.5 C22.5,7.5 25,8.6 25,10 L5,10 C5,8.5 6.1,7.5 7.5,7.5 Z M5,27.5 L10,27.5 L10,25 L5,25 L5,27.5 Z M22.5,21.5 L22.5,16.5 L12.5,24 L22.5,31.5 L22.5,26.5 L32,26.5 L32,21.5 L22.5,21.5 Z M17.5,15 L5,15 L5,17.5 L17.5,17.5 L17.5,15 Z M10,20 L5,20 L5,22.5 L10,22.5 L10,20 Z" />
    </symbol>
    <use xlink:href="#clipboard_copy" />
</svg>
