<svg version="1.1" xmlns="http://www.w3.org/2000/svg" xmlns:xlink="http://www.w3.org/1999/xlink">
    <symbol id="columns_24" viewBox="0 0 24 24">
        <g transform="matrix(1,0,0,1,-136.958,-68.4601)" style="fill-rule:evenodd;clip-rule:evenodd;stroke-linecap:round;stroke-linejoin:round;stroke-miterlimit:1.5;" fill="currentColor">
            <g transform="matrix(-0.880121,0,0,0.985328,160.958,68.4601)">
                <g transform="matrix(-1.30664,0,0,1.16712,64.1578,-32.9501)">
                    <g transform="matrix(2.22222,0,0,2.22222,-317.833,-80.4485)">
                        <path d="M159.958,49.415L159.958,57.789C159.958,57.962 159.817,58.102 159.644,58.102L156.238,58.102C156.065,58.102 155.925,57.962 155.925,57.789L155.925,49.415C155.925,49.242 156.065,49.102 156.238,49.102L159.644,49.102C159.817,49.102 159.958,49.242 159.958,49.415Z"/>
                        <path d="M159.958,49.415L159.958,57.789C159.958,57.962 159.817,58.102 159.644,58.102L156.238,58.102C156.065,58.102 155.925,57.962 155.925,57.789L155.925,49.415C155.925,49.242 156.065,49.102 156.238,49.102L159.644,49.102C159.817,49.102 159.958,49.242 159.958,49.415ZM156.707,49.884L156.707,57.319L159.175,57.319L159.175,49.884L156.707,49.884Z"/>
                    </g>
                    <g transform="matrix(2.22222,0,0,2.22222,-307.398,-80.4485)">
                        <path d="M159.958,49.415L159.958,57.789C159.958,57.962 159.817,58.102 159.644,58.102L156.238,58.102C156.065,58.102 155.925,57.962 155.925,57.789L155.925,49.415C155.925,49.242 156.065,49.102 156.238,49.102L159.644,49.102C159.817,49.102 159.958,49.242 159.958,49.415ZM156.707,49.884L156.707,57.319L159.175,57.319L159.175,49.884L156.707,49.884Z"/>
                    </g>
                </g>
            </g>
        </g>
    </symbol>
    <use xlink:href="#columns_24" />
</svg>
