<svg version="1.1" xmlns="http://www.w3.org/2000/svg" xmlns:xlink="http://www.w3.org/1999/xlink">
    <symbol id="database_table_24" viewBox="0 0 24 24">
        <g transform="matrix(1,0,0,1,-102.142,-35.1018)" style="fill-rule:evenodd;clip-rule:evenodd;stroke-linejoin:round;stroke-miterlimit:2;" fill="currentColor">
            <g transform="matrix(-0.880121,0,0,0.985328,126.142,35.1018)">
                <g transform="matrix(0.43604,0,0,0.43604,0.888491,12.9388)">
                    <g transform="matrix(-3.09915,0,0,0.790417,509.935,-38.3035)">
                        <path d="M159.958,51.458L159.958,55.746C159.958,57.046 159.656,58.102 159.285,58.102L156.597,58.102C156.226,58.102 155.925,57.046 155.925,55.746L155.925,51.458C155.925,50.157 156.226,49.102 156.597,49.102L159.285,49.102C159.656,49.102 159.958,50.157 159.958,51.458Z"/>
                    </g>
                    <g transform="matrix(-3.09915,0,0,0.790417,509.935,-30.1843)">
                        <path d="M159.958,51.458L159.958,55.746C159.958,57.046 159.656,58.102 159.285,58.102L156.597,58.102C156.226,58.102 155.925,57.046 155.925,55.746L155.925,51.458C155.925,50.157 156.226,49.102 156.597,49.102L159.285,49.102C159.656,49.102 159.958,50.157 159.958,51.458Z"/>
                    </g>
                    <g transform="matrix(-3.09915,0,0,0.790417,509.935,-22.0652)">
                        <path d="M159.958,51.458L159.958,55.746C159.958,57.046 159.656,58.102 159.285,58.102L156.597,58.102C156.226,58.102 155.925,57.046 155.925,55.746L155.925,51.458C155.925,50.157 156.226,49.102 156.597,49.102L159.285,49.102C159.656,49.102 159.958,50.157 159.958,51.458Z"/>
                    </g>
                    <g transform="matrix(-3.09915,0,0,0.790417,496.301,-22.0652)">
                        <path d="M159.958,51.458L159.958,55.746C159.958,57.046 159.656,58.102 159.285,58.102L156.597,58.102C156.226,58.102 155.925,57.046 155.925,55.746L155.925,51.458C155.925,50.157 156.226,49.102 156.597,49.102L159.285,49.102C159.656,49.102 159.958,50.157 159.958,51.458Z"/>
                    </g>
                    <g transform="matrix(-3.09915,0,0,0.790417,496.301,-30.1843)">
                        <path d="M159.958,51.458L159.958,55.746C159.958,57.046 159.656,58.102 159.285,58.102L156.597,58.102C156.226,58.102 155.925,57.046 155.925,55.746L155.925,51.458C155.925,50.157 156.226,49.102 156.597,49.102L159.285,49.102C159.656,49.102 159.958,50.157 159.958,51.458Z"/>
                    </g>
                    <g transform="matrix(-3.09915,0,0,0.790417,496.301,-38.3035)">
                        <path d="M159.958,51.458L159.958,55.746C159.958,57.046 159.656,58.102 159.285,58.102L156.597,58.102C156.226,58.102 155.925,57.046 155.925,55.746L155.925,51.458C155.925,50.157 156.226,49.102 156.597,49.102L159.285,49.102C159.656,49.102 159.958,50.157 159.958,51.458Z"/>
                    </g>
                    <g transform="matrix(-2.60574,0,0,2.32752,60.5001,-29.6735)">
                        <path d="M11.642,22.747C9.294,22.711 7.144,22.315 5.534,21.671C4.69,21.334 3.957,20.913 3.422,20.407C2.886,19.9 2.5,19.256 2.5,18.5L2.526,18.5L2.5,18.487L2.5,5.5C2.5,4.744 2.886,4.1 3.422,3.593C3.957,3.087 4.69,2.666 5.534,2.329C7.226,1.652 9.513,1.25 12,1.25C14.487,1.25 16.773,1.652 18.466,2.329C19.31,2.666 20.043,3.087 20.578,3.593C21.114,4.1 21.5,4.744 21.5,5.5L21.5,12L20,12L20,7.871C19.52,8.193 19.005,8.462 18.466,8.671C16.773,9.348 14.487,9.75 12,9.75C9.513,9.75 7.226,9.348 5.534,8.671C4.995,8.462 4.48,8.193 4,7.871L4,12C4,12.21 4.104,12.487 4.453,12.817C4.803,13.149 5.352,13.483 6.091,13.778C7.49,14.338 9.443,14.71 11.642,14.747L11.642,16.247C9.294,16.211 7.144,15.815 5.534,15.171C4.995,14.962 4.48,14.693 4,14.371L4,18.487L3.987,18.5L4,18.5C4,18.711 4.103,18.987 4.453,19.317C4.804,19.649 5.351,19.983 6.091,20.279C7.49,20.838 9.443,21.21 11.642,21.247L11.642,22.747ZM4,5.5C4,5.711 4.103,5.987 4.453,6.317C4.804,6.649 5.351,6.983 6.091,7.279C7.566,7.868 9.655,8.25 12,8.25C14.345,8.25 16.434,7.869 17.909,7.279C18.648,6.983 19.197,6.649 19.547,6.317C19.896,5.987 20,5.71 20,5.5C20,5.289 19.897,5.013 19.547,4.683C19.196,4.351 18.649,4.017 17.909,3.721C16.434,3.132 14.345,2.75 12,2.75C9.655,2.75 7.566,3.131 6.091,3.721C5.352,4.017 4.803,4.351 4.453,4.683C4.104,5.013 4,5.29 4,5.5Z"/>
                    </g>
                </g>
            </g>
        </g>
    </symbol>
    <use xlink:href="#database_table_24" />
</svg>


