<svg version="1.1" xmlns="http://www.w3.org/2000/svg" xmlns:xlink="http://www.w3.org/1999/xlink">
    <symbol id="database_schema_24" viewBox="0 0 24 24">
        <g transform="matrix(1,0,0,1,-67.1676,-35.1018)" style="fill-rule:evenodd;clip-rule:evenodd;stroke-linejoin:round;stroke-miterlimit:2;" fill="currentColor">
            <g transform="matrix(-0.880121,0,0,0.985328,91.1676,35.1018)">
                <g transform="matrix(-1.13621,0,0,1.01489,27.269,0)">
                    <path d="M11.642,22.747C9.294,22.711 7.144,22.315 5.534,21.671C4.69,21.334 3.957,20.913 3.422,20.407C2.886,19.9 2.5,19.256 2.5,18.5L2.526,18.5L2.5,18.487L2.5,5.5C2.5,4.744 2.886,4.1 3.422,3.593C3.957,3.087 4.69,2.666 5.534,2.329C7.226,1.652 9.513,1.25 12,1.25C14.487,1.25 16.773,1.652 18.466,2.329C19.31,2.666 20.043,3.087 20.578,3.593C21.114,4.1 21.5,4.744 21.5,5.5L21.5,12L20,12L20,7.871C19.52,8.193 19.005,8.462 18.466,8.671C16.773,9.348 14.487,9.75 12,9.75C9.513,9.75 7.226,9.348 5.534,8.671C4.995,8.462 4.48,8.193 4,7.871L4,12C4,12.21 4.104,12.487 4.453,12.817C4.803,13.149 5.352,13.483 6.091,13.778C7.49,14.338 9.443,14.71 11.642,14.747L11.642,16.247C9.294,16.211 7.144,15.815 5.534,15.171C4.995,14.962 4.48,14.693 4,14.371L4,18.487L3.987,18.5L4,18.5C4,18.711 4.103,18.987 4.453,19.317C4.804,19.649 5.351,19.983 6.091,20.279C7.49,20.838 9.443,21.21 11.642,21.247L11.642,22.747ZM4,5.5C4,5.711 4.103,5.987 4.453,6.317C4.804,6.649 5.351,6.983 6.091,7.279C7.566,7.868 9.655,8.25 12,8.25C14.345,8.25 16.434,7.869 17.909,7.279C18.648,6.983 19.197,6.649 19.547,6.317C19.896,5.987 20,5.71 20,5.5C20,5.289 19.897,5.013 19.547,4.683C19.196,4.351 18.649,4.017 17.909,3.721C16.434,3.132 14.345,2.75 12,2.75C9.655,2.75 7.566,3.131 6.091,3.721C5.352,4.017 4.803,4.351 4.453,4.683C4.104,5.013 4,5.29 4,5.5Z"/>
                </g>
                <g transform="matrix(-1.18904,0,0,1.06208,114.414,5.43883)">
                    <path d="M88.989,17.096L89.155,16.325C88.992,16.331 88.859,16.29 88.757,16.2C88.654,16.11 88.574,15.992 88.515,15.846C88.456,15.7 88.417,15.536 88.395,15.355C88.374,15.175 88.364,14.996 88.364,14.821L88.364,14.025C88.364,13.637 88.269,13.296 88.08,12.999C87.892,12.703 87.595,12.477 87.192,12.321C87.592,12.164 87.888,11.937 88.078,11.637C88.268,11.338 88.364,10.994 88.364,10.607L88.364,9.811C88.364,9.635 88.368,9.457 88.376,9.276C88.384,9.096 88.413,8.932 88.461,8.785C88.51,8.639 88.588,8.521 88.696,8.431C88.803,8.342 88.956,8.3 89.155,8.307L88.989,7.54C88.673,7.54 88.401,7.601 88.173,7.721C87.945,7.841 87.761,7.996 87.621,8.185C87.452,8.403 87.329,8.659 87.25,8.954C87.172,9.249 87.133,9.534 87.133,9.811L87.133,10.607C87.133,11.046 87.032,11.36 86.83,11.549C86.629,11.738 86.321,11.832 85.908,11.832L85.908,12.809C86.321,12.809 86.629,12.903 86.83,13.092C87.032,13.281 87.133,13.592 87.133,14.025L87.133,14.821C87.133,15.078 87.168,15.341 87.238,15.609C87.308,15.878 87.421,16.124 87.578,16.349C87.724,16.564 87.915,16.742 88.151,16.884C88.387,17.025 88.666,17.096 88.989,17.096Z" style="fill-rule:nonzero;"/>
                    <path d="M92.021,16.325L92.187,17.096C92.509,17.096 92.788,17.027 93.024,16.888C93.26,16.75 93.452,16.569 93.598,16.344C93.745,16.129 93.855,15.885 93.93,15.612C94.005,15.338 94.042,15.075 94.042,14.821L94.042,14.025C94.042,13.872 94.055,13.734 94.079,13.612C94.103,13.49 94.14,13.383 94.189,13.292C94.28,13.123 94.415,13 94.594,12.924C94.773,12.847 94.998,12.809 95.268,12.809L95.268,11.832C95.027,11.832 94.821,11.801 94.65,11.74C94.479,11.678 94.347,11.58 94.252,11.447C94.181,11.349 94.128,11.23 94.094,11.09C94.059,10.95 94.042,10.789 94.042,10.607L94.042,9.811C94.042,9.563 94.012,9.307 93.952,9.042C93.892,8.777 93.79,8.536 93.647,8.322C93.497,8.084 93.303,7.894 93.066,7.753C92.828,7.611 92.535,7.54 92.187,7.54L92.021,8.307C92.219,8.3 92.372,8.342 92.48,8.431C92.587,8.521 92.665,8.639 92.714,8.785C92.763,8.932 92.792,9.096 92.8,9.276C92.808,9.457 92.812,9.635 92.812,9.811L92.812,10.607C92.812,10.831 92.843,11.044 92.905,11.244C92.967,11.444 93.063,11.626 93.193,11.788C93.281,11.899 93.385,12 93.505,12.091C93.626,12.182 93.764,12.26 93.92,12.326C93.728,12.407 93.563,12.505 93.425,12.621C93.286,12.736 93.172,12.867 93.08,13.014C92.989,13.16 92.922,13.318 92.878,13.488C92.834,13.657 92.812,13.836 92.812,14.025L92.812,14.821C92.812,14.996 92.801,15.175 92.778,15.355C92.755,15.536 92.714,15.7 92.656,15.846C92.597,15.992 92.517,16.11 92.414,16.2C92.311,16.29 92.18,16.331 92.021,16.325Z" style="fill-rule:nonzero;"/>
                </g>
            </g>
        </g>
    </symbol>
    <use xlink:href="#database_schema_24" />
</svg>

