<svg width="24px" height="24px" version="1.1" xmlns="http://www.w3.org/2000/svg" xmlns:xlink="http://www.w3.org/1999/xlink" xml:space="preserve" xmlns:serif="http://www.serif.com/">
    <symbol id="f_24" viewBox="0 0 24 24">
        <g transform="matrix(0.834217,0,0,1.04677,0,0)">
            <g transform="matrix(1.27552,0,0,1.01651,4.34409,3.99784)">
                <path fill="currentColor" d="M3.183,15.939L6.139,15.939L7.801,6.41L11.897,6.41L12.299,4.183L8.095,4.194L8.236,3.531C8.308,3.176 8.422,2.865 8.578,2.597C8.734,2.329 8.92,2.101 9.138,1.912C9.42,1.666 9.751,1.485 10.132,1.369C10.512,1.253 10.93,1.199 11.387,1.206C11.734,1.206 12.08,1.226 12.424,1.266C12.768,1.306 13.111,1.365 13.451,1.445L13.907,-0.924C13.444,-1.003 12.98,-1.076 12.517,-1.141C12.053,-1.206 11.586,-1.242 11.115,-1.249C10.333,-1.257 9.614,-1.155 8.958,-0.945C8.303,-0.735 7.725,-0.427 7.225,-0.022C6.718,0.384 6.298,0.886 5.965,1.483C5.632,2.081 5.4,2.763 5.27,3.531L5.15,4.194L2.238,4.183L1.836,6.41L4.835,6.41L3.183,15.939Z" style="fill-rule:nonzero;"/>
            </g>
        </g>
    </symbol>
    <use xlink:href="#f_24" />
</svg>

