<svg version="1.1" xmlns="http://www.w3.org/2000/svg" xmlns:xlink="http://www.w3.org/1999/xlink">
    <symbol id="table_24" viewBox="0 0 24 24">
        <g transform="matrix(1,0,0,1,-102.142,-68.9601)" style="fill-rule:evenodd;clip-rule:evenodd;stroke-linejoin:round;stroke-miterlimit:2;" fill="currentColor">
            <g transform="matrix(-0.880121,0,0,0.985328,126.142,68.9601)">
                <rect x="0" y="0" width="27.269" height="24.357" style="fill:none;"/>
                <g transform="matrix(-3.09915,0,0,0.790417,509.935,-38.3035)">
                    <path d="M159.958,50.129L159.958,57.075C159.958,57.642 159.826,58.102 159.664,58.102L156.218,58.102C156.056,58.102 155.925,57.642 155.925,57.075L155.925,50.129C155.925,49.562 156.056,49.102 156.218,49.102L159.664,49.102C159.826,49.102 159.958,49.562 159.958,50.129Z"/>
                </g>
                <g transform="matrix(-3.09915,0,0,0.790417,509.935,-30.1843)">
                    <path d="M159.958,50.129L159.958,57.075C159.958,57.642 159.826,58.102 159.664,58.102L156.218,58.102C156.056,58.102 155.925,57.642 155.925,57.075L155.925,50.129C155.925,49.562 156.056,49.102 156.218,49.102L159.664,49.102C159.826,49.102 159.958,49.562 159.958,50.129ZM156.585,51.413L156.585,55.791L159.298,55.791L159.298,51.413L156.585,51.413Z"/>
                </g>
                <g transform="matrix(-3.09915,0,0,0.790417,509.935,-22.0652)">
                    <path d="M159.958,50.129L159.958,57.075C159.958,57.642 159.826,58.102 159.664,58.102L156.218,58.102C156.056,58.102 155.925,57.642 155.925,57.075L155.925,50.129C155.925,49.562 156.056,49.102 156.218,49.102L159.664,49.102C159.826,49.102 159.958,49.562 159.958,50.129ZM156.585,51.413L156.585,55.791L159.298,55.791L159.298,51.413L156.585,51.413Z"/>
                </g>
                <g transform="matrix(-3.09915,0,0,0.790417,496.301,-22.0652)">
                    <path d="M159.958,50.129L159.958,57.075C159.958,57.642 159.826,58.102 159.664,58.102L156.218,58.102C156.056,58.102 155.925,57.642 155.925,57.075L155.925,50.129C155.925,49.562 156.056,49.102 156.218,49.102L159.664,49.102C159.826,49.102 159.958,49.562 159.958,50.129ZM156.585,51.413L156.585,55.791L159.298,55.791L159.298,51.413L156.585,51.413Z"/>
                </g>
                <g transform="matrix(-3.09915,0,0,0.790417,496.301,-30.1843)">
                    <path d="M159.958,50.129L159.958,57.075C159.958,57.642 159.826,58.102 159.664,58.102L156.218,58.102C156.056,58.102 155.925,57.642 155.925,57.075L155.925,50.129C155.925,49.562 156.056,49.102 156.218,49.102L159.664,49.102C159.826,49.102 159.958,49.562 159.958,50.129ZM156.585,51.413L156.585,55.791L159.298,55.791L159.298,51.413L156.585,51.413Z"/>
                </g>
                <g transform="matrix(-3.09915,0,0,0.790417,496.301,-38.3035)">
                    <path d="M159.958,50.129L159.958,57.075C159.958,57.642 159.826,58.102 159.664,58.102L156.218,58.102C156.056,58.102 155.925,57.642 155.925,57.075L155.925,50.129C155.925,49.562 156.056,49.102 156.218,49.102L159.664,49.102C159.826,49.102 159.958,49.562 159.958,50.129Z"/>
                </g>
            </g>
        </g>
    </symbol>
    <use xlink:href="#table_24" />
</svg>
