<svg version="1.1" xmlns="http://www.w3.org/2000/svg" xmlns:xlink="http://www.w3.org/1999/xlink">
    <symbol id="vsplit_bottom_24" viewBox="0 0 24 24">
        <g transform="matrix(1,0,0,1,-26.6019,-4.44089e-16)" fill="currentColor">
            <g transform="matrix(1,0,0,1,26.6019,4.44089e-16)">
                <g transform="matrix(6.12323e-17,-1,1,6.12323e-17,-1.76484e-07,24)">
                    <path d="M3.75,2L20.25,2C21.216,2 22,2.784 22,3.75L22,20.25C22,20.714 21.816,21.159 21.487,21.487C21.159,21.815 20.714,22 20.25,22L3.75,22C3.286,22 2.841,21.816 2.513,21.487C2.185,21.159 2,20.714 2,20.25L2,3.75C2,2.784 2.784,2 3.75,2ZM12.5,20.5L20.25,20.5C20.387,20.5 20.5,20.387 20.5,20.25L20.5,3.75C20.5,3.613 20.387,3.5 20.25,3.5L12.5,3.5L12.5,20.5Z" style="fill-rule:nonzero;"/>
                </g>
            </g>
        </g>
    </symbol>
    <use xlink:href="#hsplit_bottom_24" />
</svg>


