<?xml version="1.0" encoding="UTF-8" standalone="no"?>
<!DOCTYPE svg PUBLIC "-//W3C//DTD SVG 1.1//EN" "http://www.w3.org/Graphics/SVG/1.1/DTD/svg11.dtd">
<svg width="100%" height="100%" viewBox="0 0 300 300" version="1.1" xmlns="http://www.w3.org/2000/svg" xmlns:xlink="http://www.w3.org/1999/xlink" xml:space="preserve" xmlns:serif="http://www.serif.com/" style="fill-rule:evenodd;clip-rule:evenodd;stroke-linejoin:round;stroke-miterlimit:2;">
    <g id="robot" transform="matrix(1,0,0,1,-44,-44)">
        <g transform="matrix(1,0,0,1,44,44)">
            <path d="M230.41,153.7C225.12,162.132 217.928,169.209 209.41,174.36C223.71,189.6 239.63,213.23 234.13,227.99C223.75,241.7 207.63,224.7 199.32,213.99C174.37,263.91 125.64,263.89 100.7,213.99C92.38,224.69 76.28,241.68 65.89,227.99C60.39,213.22 76.3,189.61 90.61,174.36C82.092,169.209 74.9,162.132 69.61,153.7C46.95,149.84 41.74,117.33 61.96,106.55C63.02,98.55 65.09,91.99 68.09,87.55C74.52,73.05 134.9,66 147,67C147.05,66.49 146.9,42.41 147.05,41.94C137.94,39.06 140.27,24.5 150,24.79C159.73,24.5 162.06,39.06 152.95,41.94C153.1,42.41 152.95,66.49 153,67C165.12,66 225.46,73 231.94,87.59C234.94,91.98 237,98.59 238.06,106.59C258.27,117.32 253.08,149.84 230.41,153.7Z" style="fill:rgb(30,30,30);fill-rule:nonzero;"/>
        </g>
        <path d="M141.7,222.13C144.52,276.36 197.8,319.47 234.37,262.2C241.49,250.01 244.16,237.66 246.3,222.07C208,234.82 170.11,232.54 141.7,222.13Z" style="fill:white;fill-rule:nonzero;"/>
        <path d="M142.08,251.47C139.929,245.156 138.278,238.683 137.14,232.11C107.83,267.67 113.52,288.37 142.08,251.47Z" style="fill:white;fill-rule:nonzero;"/>
        <path d="M264.61,129.42C268.81,178.28 239.32,206.56 194.01,206.56C147.47,206.56 119.25,178.42 123.39,129.42C111.13,137.75 111.04,148.13 111.54,172.87C117.29,226.27 188.6,233.57 239.09,217.64C249.087,214.589 258.006,208.741 264.79,200.79C271.501,192.931 275.586,183.166 276.47,172.87C277,148.15 276.86,137.72 264.61,129.42Z" style="fill:white;fill-rule:nonzero;"/>
        <path d="M245.92,251.47C274.45,288.33 280.21,267.72 250.92,232.11C249.758,238.683 248.086,245.156 245.92,251.47Z" style="fill:white;fill-rule:nonzero;"/>
        <path d="M194,168.27C165.91,168.27 149.42,164.45 148.73,164.27C146.547,163.689 145.015,161.697 145.015,159.438C145.015,156.695 147.272,154.438 150.015,154.438C150.353,154.438 150.689,154.472 151.02,154.54C151.18,154.54 167.2,158.25 194.02,158.25C220.84,158.25 236.85,154.57 237.02,154.54C237.351,154.472 237.687,154.438 238.025,154.438C240.768,154.438 243.025,156.695 243.025,159.438C243.025,161.697 241.493,163.689 239.31,164.27C238.62,164.43 222.13,168.27 194.04,168.27L194,168.27Z" style="fill:white;fill-rule:nonzero;"/>
        <g transform="matrix(1,0,0,1,0,-0.019156)">
            <path d="M186.87,240.33C186.761,240.327 186.651,240.325 186.542,240.325C180.628,240.325 175.762,245.191 175.762,251.105C175.762,257.019 180.628,261.885 186.542,261.885C186.651,261.885 186.761,261.883 186.87,261.88C188.526,261.88 190.16,261.493 191.64,260.75L191.64,268.1C191.64,269.746 192.994,271.1 194.64,271.1C196.286,271.1 197.64,269.746 197.64,268.1L197.64,251.1C197.629,245.196 192.774,240.341 186.87,240.33Z" style="fill:rgb(30,30,30);fill-rule:nonzero;"/>
        </g>
        <g transform="matrix(1,0,0,1,0,-0.019156)">
            <path d="M204.91,240.33C203.264,240.33 201.91,241.684 201.91,243.33L201.91,268.1C201.91,269.746 203.264,271.1 204.91,271.1C206.556,271.1 207.91,269.746 207.91,268.1L207.91,243.33C207.91,241.684 206.556,240.33 204.91,240.33Z" style="fill:rgb(30,30,30);fill-rule:nonzero;"/>
        </g>
    </g>
</svg>
