<?xml version="1.0" encoding="UTF-8"?>
<svg width="128px" height="122px" viewBox="0 0 128 122" version="1.1" xmlns="http://www.w3.org/2000/svg" xmlns:xlink="http://www.w3.org/1999/xlink">
    <!-- Generator: Sketch 53.2 (72643) - https://sketchapp.com -->
    <title>Logo</title>
    <desc>Created with Sketch.</desc>
    <defs>
        <radialGradient cx="0%" cy="35.4035526%" fx="0%" fy="35.4035526%" r="77.3697843%" gradientTransform="translate(0.000000,0.354036),scale(0.681005,1.000000),rotate(18.384627),translate(-0.000000,-0.354036)" id="radialGradient-1">
            <stop stop-color="#FFB425" offset="0%"></stop>
            <stop stop-color="#E35270" offset="100%"></stop>
        </radialGradient>
        <radialGradient cx="14.0724618%" cy="12.8904943%" fx="14.0724618%" fy="12.8904943%" r="133.806433%" gradientTransform="translate(0.140725,0.128905),scale(0.947151,1.000000),rotate(52.287860),scale(1.000000,0.992756),translate(-0.140725,-0.128905)" id="radialGradient-2">
            <stop stop-color="#FFB425" offset="0%"></stop>
            <stop stop-color="#FFB425" offset="9.70237413%"></stop>
            <stop stop-color="#FD5151" offset="60.3336833%"></stop>
            <stop stop-color="#FD5151" offset="100%"></stop>
        </radialGradient>
    </defs>
    <g id="Page-2" stroke="none" stroke-width="1" fill="none" fill-rule="evenodd">
        <g id="Logo" transform="translate(-36.000000, -39.000000)">
            <g transform="translate(36.000000, 39.000000)">
                <path d="M8.14699425,78.8022645 C18.2664894,99.2898383 39.3720908,113.381085 63.7688792,113.381085 C98.0105337,113.381085 124.768879,86.6227394 124.768879,52.3810849 C124.768879,46.1169354 124.839895,40.0697618 123.112181,34.3698185 C126.115147,41.784326 127.768879,48.8895806 127.768879,57.3810849 C127.768879,92.7273089 99.1151032,121.381085 63.7688792,121.381085 C33.3062491,121.381085 7.8145043,100.098195 1.35190958,71.5906788 C1.012995,70.0956736 0.726414676,68.5807991 0.494196205,67.0480829 C0.286131773,65.6747911 0.121708515,64.2871762 0.00238485758,62.8866966 C-0.152227992,61.0720343 7.25932024,77.0051109 8.14699425,78.8022645 Z" id="Tail" fill="url(#radialGradient-1)" transform="translate(63.884440, 77.875452) scale(-1, 1) translate(-63.884440, -77.875452) "></path>
                <path d="M122.763254,52.3810849 C122.763254,86.6227394 95.0049086,114.381085 60.7632541,114.381085 C34.6826601,114.381085 12.3632295,98.2776304 3.20562611,75.4713852 C1.97402966,72.4041972 1.64048162,68.4708234 2.41682378,69.6884353 C4.23031109,72.5327013 6.32922589,75.1772871 8.67321358,77.5818382 C17.5731136,86.7116915 30.006105,92.3810849 43.7632541,92.3810849 C70.8252069,92.3810849 90.7632541,71.4430377 90.7632541,44.3810849 C90.7632541,26.3397831 68.3971815,25.3235155 23.6650364,41.3322822 C20.4380719,35.7259623 19.9419171,31.3936694 22.1765719,28.3354036 C25.5285542,23.7480048 30.8994173,21.3347569 35.7969262,18.964992 C40.7969262,16.5456346 37.1600677,11.374418 45.546161,7.99351597 C53.9322543,4.61261393 67.5218618,2.98609638 76.3015209,3.79935516 C85.0811799,4.61261393 94.9880787,-1.58166489 97.5899544,0.389398287 C99.3245382,1.7034404 112.123769,17.0705517 112.097555,17.123125 C119.559603,29.4184555 122.763254,40.1432253 122.763254,52.3810849 Z" id="Head" fill="url(#radialGradient-2)" transform="translate(62.381627, 57.190542) scale(-1, 1) translate(-62.381627, -57.190542) "></path>
                <path d="M46.9164837,46.2806219 C45.5009174,49.3537334 41.9959941,46.5259741 39.001894,41.3322822 C60.7636765,28.8490915 106.100112,17.3191322 106.100112,44.3810849 C106.100112,71.4430377 86.1620645,92.3810849 59.1001117,92.3810849 C50.0447457,92.3810849 41.5630929,89.9247266 34.2851167,85.6419733 C32.2248853,84.4296221 41.5856916,89.9310521 54.1001117,88.3810849 C76.2156721,85.6419733 86.8222007,74.4079457 86.8222007,52.4664749 C79.2960089,67.942976 60.9952931,65.8980693 56.1001117,64.6174564 C52.9227524,63.7862375 47.6786351,54.1905425 52.1337838,54.2994406 C72.1001117,57.1905425 52.9227524,33.2413644 46.9164837,46.2806219 Z" id="Mouth" fill="#FFB425" transform="translate(70.050056, 60.121606) scale(-1, 1) translate(-70.050056, -60.121606) "></path>
            </g>
        </g>
    </g>
</svg>