<?xml version="1.0" encoding="UTF-8"?>
<svg width="128px" height="122px" viewBox="0 0 128 122" version="1.1" xmlns="http://www.w3.org/2000/svg" xmlns:xlink="http://www.w3.org/1999/xlink">
    <!-- Generator: Sketch 53.2 (72643) - https://sketchapp.com -->
    <title>Logo</title>
    <desc>Created with Sketch.</desc>
    <defs>
        <radialGradient cx="0%" cy="35.4035526%" fx="0%" fy="35.4035526%" r="77.3697843%" gradientTransform="translate(0.000000,0.354036),scale(0.681005,1.000000),rotate(18.384627),translate(-0.000000,-0.354036)" id="radialGradient-1">
            <stop stop-color="#FFB425" offset="0%"></stop>
            <stop stop-color="#E35270" offset="100%"></stop>
        </radialGradient>
        <radialGradient cx="14.0724618%" cy="12.8904943%" fx="14.0724618%" fy="12.8904943%" r="133.806433%" gradientTransform="translate(0.140725,0.128905),scale(0.947151,1.000000),rotate(52.287860),scale(1.000000,0.992756),translate(-0.140725,-0.128905)" id="radialGradient-2">
            <stop stop-color="#FFB425" offset="0%"></stop>
            <stop stop-color="#FFB425" offset="9.70237413%"></stop>
            <stop stop-color="#FD5151" offset="60.3336833%"></stop>
            <stop stop-color="#FD5151" offset="100%"></stop>
        </radialGradient>
    </defs>
    <g id="Page-2" stroke="none" stroke-width="1" fill="none" fill-rule="evenodd">
        <g id="Logo" transform="translate(-36.000000, -39.000000)">
            <g transform="translate(36.000000, 39.000000)">
                <path d="M8.14699425,78.8022645 C18.2664894,99.2898383 39.3720908,113.381085 63.7688792,113.381085 C98.0105337,113.381085 124.768879,86.6227394 124.768879,52.3810849 C124.768879,46.1169354 124.839895,40.0697618 123.112181,34.3698185 C126.115147,41.784326 127.768879,48.8895806 127.768879,57.3810849 C127.768879,92.7273089 99.1151032,121.381085 63.7688792,121.381085 C33.3062491,121.381085 7.8145043,100.098195 1.35190958,71.5906788 C1.012995,70.0956736 0.726414676,68.5807991 0.494196205,67.0480829 C0.286131773,65.6747911 0.121708515,64.2871762 0.00238485758,62.8866966 C-0.152227992,61.0720343 7.25932024,77.0051109 8.14699425,78.8022645 Z" id="Tail" fill="url(#radialGradient-1)" transform="translate(63.884440, 77.875452) scale(-1, 1) translate(-63.884440, -77.875452) "></path>
                <path d="M122.763254,52.3810849 C122.763254,86.6227394 95.0049086,114.381085 60.7632541,114.381085 C34.6826601,114.381085 12.3632295,98.2776304 3.20562611,75.4713852 C1.97402966,72.4041972 1.64048162,68.4708234 2.41682378,69.6884353 C4.23031109,72.5327013 6.32922589,75.1772871 8.67321358,77.5818382 C17.5731136,86.7116915 30.006105,92.3810849 43.7632541,92.3810849 C70.8252069,92.3810849 98.1332541,68.4921698 88.7632541,44.3810849 C82.5165875,28.3070283 60.1505149,27.2907607 21.6650364,41.3322822 C18.4380719,35.7259623 17.9419171,31.3936694 20.1765719,28.3354036 C23.5285542,23.7480048 28.8994173,21.3347569 33.7969262,18.964992 C38.7969262,16.5456346 35.1600677,11.374418 43.546161,7.99351597 C51.9322543,4.61261393 65.5218618,2.98609638 74.3015209,3.79935516 C83.0811799,4.61261393 94.9880787,-1.58166489 97.5899544,0.389398287 C99.3245382,1.7034404 112.123769,17.0705517 112.097555,17.123125 C119.559603,29.4184555 122.763254,40.1432253 122.763254,52.3810849 Z" id="Head" fill="url(#radialGradient-2)" transform="translate(62.381627, 57.190542) scale(-1, 1) translate(-62.381627, -57.190542) "></path>
                <path d="M45.0350969,46.2806219 C43.6195306,49.3537334 40.1146072,46.5259741 37.1205072,41.3322822 C58.8822897,28.8490915 94.8493251,20.2654215 104.218725,44.3810849 C113.588125,68.4967483 86.2806776,92.3810849 59.2187249,92.3810849 C50.1633589,92.3810849 41.681706,89.9247266 34.4037299,85.6419733 C32.3434985,84.4296221 41.7373977,90.1253978 54.2187249,88.3810849 C73.8182754,85.6419733 84.9408138,71.9331399 84.9408138,54.4664749 C77.4146221,69.942976 59.1139062,65.8980693 54.2187249,64.6174564 C51.0413655,63.7862375 45.7972483,54.1905425 50.252397,54.2994406 C70.2187249,57.1905425 51.0413655,33.2413644 45.0350969,46.2806219 Z" id="Mouth" fill="#FFB425" transform="translate(70.109362, 60.718108) scale(-1, 1) translate(-70.109362, -60.718108) "></path>
            </g>
        </g>
    </g>
</svg>